<svg width="140" height="164" viewBox="0 0 140 164" fill="none" xmlns="http://www.w3.org/2000/svg">
<path d="M138.022 50.7745C138.074 48.4241 137.502 46.1014 136.363 44.0386C135.183 42.0446 133.481 40.4026 131.437 39.2856C113.32 28.9287 95.1968 18.5863 77.0672 8.25835C72.1853 5.4636 67.4537 5.56275 62.6031 8.40087C55.393 12.5961 19.286 33.1012 8.52708 39.2794C4.09585 41.8201 1.94282 45.7117 1.94282 50.7683V113.232C1.89709 115.532 2.4465 117.806 3.53882 119.838C4.7197 121.892 6.45292 123.583 8.54586 124.721C19.3047 130.917 55.418 151.398 62.6281 155.612C67.4787 158.45 72.2103 158.549 77.0985 155.754C95.2114 145.393 113.335 135.047 131.469 124.714C133.562 123.576 135.295 121.886 136.476 119.831C137.568 117.8 138.117 115.526 138.072 113.226V50.7745H138.022Z" fill="#004482"/>
<path d="M138.034 113.232C138.081 115.533 137.532 117.807 136.438 119.838C136.17 120.321 135.866 120.785 135.531 121.226L69.9822 82.0001L131.437 39.2856C133.479 40.403 135.179 42.045 136.357 44.0386C137.501 46.0998 138.075 48.4233 138.022 50.7745C138.034 71.5957 138.034 113.232 138.034 113.232Z" fill="#00599C"/>
<path d="M136.357 44.0385L3.52005 119.838C2.4326 117.807 1.88751 115.536 1.93658 113.238V50.7682C1.93658 45.7116 4.09586 41.8201 8.52083 39.2794C19.286 33.1012 55.393 12.596 62.6094 8.38842C67.4474 5.55029 72.1853 5.45115 77.0672 8.24589C95.1801 18.6069 113.304 28.9535 131.437 39.2856C133.479 40.403 135.179 42.0449 136.357 44.0385Z" fill="#659AD2"/>
<path d="M72.6109 107.233C68.138 107.239 63.7454 106.056 59.8921 103.808C56.0387 101.559 52.8659 98.3269 50.7051 94.4493C50.484 94.061 50.2753 93.6644 50.0792 93.2595C47.4132 87.8079 46.8588 81.5776 48.5211 75.7484C50.1834 69.9192 53.947 64.896 59.0991 61.6299C64.2512 58.3639 70.4342 57.0818 76.477 58.0265C82.5198 58.9712 88.0029 62.077 91.888 66.7559C92.2197 67.1525 92.5139 67.5677 92.8456 67.9952C92.9958 68.1997 93.146 68.4042 93.2837 68.6149L115.233 56.0974C114.699 55.2464 114.14 54.4202 113.556 53.6187C113.249 53.1911 112.93 52.7821 112.63 52.3793C105.001 42.5666 93.9345 35.9405 81.6142 33.8081C69.2938 31.6756 56.6136 34.1915 46.0745 40.8596C35.5354 47.5277 27.9026 57.8639 24.6815 69.8294C21.4605 81.795 22.885 94.5213 28.6741 105.498C28.8869 105.895 29.106 106.285 29.3 106.676C33.5517 114.103 39.6706 120.315 47.0628 124.711C54.4549 129.106 62.8692 131.534 71.4888 131.76C80.1084 131.986 88.6406 130.001 96.2571 125.999C103.874 121.997 110.316 116.113 114.958 108.919L93.4965 96.0729C91.2243 99.5033 88.1254 102.32 84.4792 104.268C80.833 106.216 76.7542 107.235 72.6109 107.233Z" fill="white"/>
</svg>
