<svg width="140" height="140" viewBox="0 0 140 140" fill="none" xmlns="http://www.w3.org/2000/svg">
<g clip-path="url(#clip0_5_16)">
<path d="M0 0H140V140H0V0Z" fill="#F7DF1E"/>
<path d="M36.8112 116.994L47.5245 110.51C49.5917 114.175 51.4719 117.276 55.9819 117.276C60.305 117.276 63.0312 115.585 63.0312 109.007V64.2737H76.1873V109.193C76.1873 122.819 68.1997 129.022 56.5458 129.022C46.0212 129.022 39.912 123.571 36.8107 116.993M83.3334 115.584L94.0455 109.382C96.8658 113.987 100.531 117.37 107.015 117.37C112.466 117.37 115.942 114.645 115.942 110.886C115.942 106.375 112.371 104.777 106.357 102.146L103.068 100.736C93.5763 96.6958 87.2802 91.6208 87.2802 80.9075C87.2802 71.0397 94.798 63.5212 106.545 63.5212C114.909 63.5212 120.924 66.435 125.246 74.0469L115.002 80.6258C112.746 76.585 110.304 74.9876 106.545 74.9876C102.692 74.9876 100.248 77.431 100.248 80.6258C100.248 84.5726 102.692 86.1712 108.33 88.6146L111.619 90.0239C122.802 94.8173 129.099 99.7036 129.099 110.698C129.099 122.54 119.795 129.024 107.296 129.024C95.0797 129.024 87.1855 123.197 83.3328 115.585" fill="black"/>
</g>
<defs>
<clipPath id="clip0_5_16">
<rect width="140" height="140" fill="white"/>
</clipPath>
</defs>
</svg>
