<svg width="140" height="140" viewBox="0 0 140 140" fill="none" xmlns="http://www.w3.org/2000/svg">
<path fill-rule="evenodd" clip-rule="evenodd" d="M56.9468 8.75C47.3344 8.75 39.5423 16.2948 39.5423 25.6018V37.2685H69.6653V40.5093H26.1544C16.5422 40.5093 8.75 48.0541 8.75 57.3611V82.6389C8.75 91.9459 16.5422 99.4906 26.1544 99.4906H36.1953V85.2316C36.1953 75.9246 43.9876 68.3795 53.5999 68.3795H85.7308C93.8643 68.3795 100.457 61.9955 100.457 54.1205V25.6018C100.457 16.2948 92.6656 8.75 83.0533 8.75H56.9468ZM52.9305 29.4907C56.2577 29.4907 58.9549 26.879 58.9549 23.6574C58.9549 20.4358 56.2577 17.8241 52.9305 17.8241C49.6029 17.8241 46.9057 20.4358 46.9057 23.6574C46.9057 26.879 49.6029 29.4907 52.9305 29.4907Z" fill="url(#paint0_linear_5_19)"/>
<path fill-rule="evenodd" clip-rule="evenodd" d="M83.0524 131.25C92.6647 131.25 100.457 123.705 100.457 114.398V102.732H70.3338V99.491H113.845C123.457 99.491 131.249 91.9459 131.249 82.639V57.3611C131.249 48.0542 123.457 40.5094 113.845 40.5094H103.804V54.7685C103.804 64.0759 96.0116 71.6205 86.3997 71.6205H54.2684C46.1348 71.6205 39.5417 78.0045 39.5417 85.8795V114.398C39.5417 123.705 47.334 131.25 56.9459 131.25H83.0524ZM87.0691 110.509C83.7415 110.509 81.0443 113.121 81.0443 116.343C81.0443 119.564 83.7415 122.176 87.0691 122.176C90.3963 122.176 93.0934 119.564 93.0934 116.343C93.0934 113.121 90.3963 110.509 87.0691 110.509Z" fill="url(#paint1_linear_5_19)"/>
<defs>
<linearGradient id="paint0_linear_5_19" x1="54.6039" y1="8.75" x2="54.6039" y2="99.4906" gradientUnits="userSpaceOnUse">
<stop stop-color="#327EBD"/>
<stop offset="1" stop-color="#1565A7"/>
</linearGradient>
<linearGradient id="paint1_linear_5_19" x1="85.3956" y1="40.5094" x2="85.3956" y2="131.25" gradientUnits="userSpaceOnUse">
<stop stop-color="#FFDA4B"/>
<stop offset="1" stop-color="#F9C600"/>
</linearGradient>
</defs>
</svg>
